M48
; DRILL file {KiCad 8.0.1} date 2024-04-29T16:49:48-0300
; FORMAT={-:-/ absolute / inch / decimal}
; #@! TF.CreationDate,2024-04-29T16:49:48-03:00
; #@! TF.GenerationSoftware,Kicad,Pcbnew,8.0.1
; #@! TF.FileFunction,MixedPlating,1,2
FMAT,2
INCH
; #@! TA.AperFunction,Plated,PTH,ComponentDrill
T1C0.0315
; #@! TA.AperFunction,Plated,PTH,ComponentDrill
T2C0.0354
; #@! TA.AperFunction,Plated,PTH,ViaDrill
T3C0.0394
; #@! TA.AperFunction,Plated,PTH,ComponentDrill
T4C0.0394
; #@! TA.AperFunction,Plated,PTH,ComponentDrill
T5C0.0512
%
G90
G05
T1
X3.4843Y-2.6575
X3.4843Y-2.7362
X3.6856Y-2.7035
X3.6856Y-3.1035
X3.8037Y-2.7035
X3.8037Y-3.1035
X3.9219Y-2.7035
X3.9219Y-3.1035
X4.1187Y-2.8642
X4.1187Y-2.9429
X4.3701Y-2.7134
X4.3701Y-3.1134
X4.4882Y-2.7134
X4.4882Y-3.1134
X4.5866Y-0.9843
X4.5866Y-1.063
X4.6063Y-2.7134
X4.6063Y-3.1134
X4.8031Y-2.874
X4.8031Y-2.9528
X5.0Y-0.9024
X5.0Y-1.3024
X5.0787Y-2.7173
X5.0787Y-3.1173
X5.1969Y-2.7173
X5.1969Y-3.1173
X5.315Y-2.7173
X5.315Y-3.1173
X5.5118Y-2.878
X5.5118Y-2.9567
T2
X5.2787Y-0.9433
X5.2787Y-1.0433
T3
X1.1417Y-3.4252
X1.34Y-3.416
X1.54Y-3.42
X1.738Y-3.072
X1.738Y-3.242
X1.738Y-3.4234
X5.4134Y-2.6378
X5.4134Y-2.7953
T4
X2.1031Y-3.3268
X2.1031Y-3.5236
X3.248Y-3.1299
X3.248Y-3.7205
X3.7787Y-1.4567
X3.7787Y-2.4567
X3.8764Y-2.2638
X3.8787Y-1.4567
X3.8787Y-2.4567
X3.9764Y-2.2638
X3.9787Y-1.4567
X3.9787Y-2.4567
X4.0764Y-2.2638
X4.0787Y-1.4567
X4.0787Y-2.4567
X4.1339Y-0.922
X4.1339Y-1.022
X4.1339Y-1.122
X4.1339Y-1.222
X4.1787Y-1.4567
X4.1787Y-2.4567
X4.2787Y-1.4567
X4.2787Y-2.4567
X4.3701Y-0.9811
X4.3701Y-1.0811
X4.3701Y-1.1811
X4.3787Y-1.4567
X4.3787Y-2.4567
X4.4787Y-1.4567
X4.4787Y-2.4567
X4.5787Y-1.4567
X4.5787Y-2.4567
X4.6787Y-1.4567
X4.6787Y-2.4567
X4.7787Y-1.4567
X4.7787Y-2.4567
X4.7835Y-0.9811
X4.7835Y-1.0811
X4.7835Y-1.1811
X4.8787Y-1.4567
X4.8787Y-2.4567
X4.9787Y-1.4567
X4.9787Y-2.4567
X5.0787Y-1.4567
X5.0787Y-2.4567
X5.1787Y-1.4567
X5.1787Y-2.4567
T5
X1.1354Y-3.7402
X1.3354Y-3.7402
X1.5354Y-3.7402
X1.7354Y-3.7402
X3.5402Y-1.0236
X3.7402Y-1.0236
X3.8386Y-3.5236
X4.0386Y-3.5236
X4.5652Y-3.5236
X4.7652Y-3.5236
X5.2541Y-3.5236
X5.4541Y-3.5236
M30
